<svg width="39" height="39" viewBox="0 0 39 39" fill="none" xmlns="http://www.w3.org/2000/svg">
<path d="M35.1251 23.0347C32.9068 31.9326 23.8947 37.3477 14.9957 35.1288C6.10044 32.9104 0.685292 23.8978 2.90471 15.0005C5.12204 6.10154 14.1341 0.685882 23.0305 2.90426C31.9289 5.12263 37.3435 14.1363 35.1251 23.0347Z" fill="url(#g8)" fill-opacity="0.3"></path>
<path fill-rule="evenodd" clip-rule="evenodd" d="M4.30614 15.3497L4.30604 15.35C2.2797 23.4734 7.22389 31.7021 15.3452 33.7274C23.4702 35.7534 31.6984 30.8092 33.7238 22.6853C35.7492 14.5607 30.8053 6.33101 22.6811 4.30564L22.681 4.30562C14.5589 2.28029 6.33062 7.2247 4.30614 15.3497ZM23.0305 2.90426C14.1341 0.685882 5.12204 6.10154 2.90471 15.0005C0.685292 23.8978 6.10044 32.9104 14.9957 35.1288C23.8947 37.3477 32.9068 31.9326 35.1251 23.0347C37.3435 14.1363 31.9289 5.12263 23.0305 2.90426Z" fill="#35A4EA"></path>
<path d="M25.7851 16.9301C26.0911 14.9846 24.534 13.9387 22.4049 13.241L23.0955 10.6056L21.4093 10.2058L20.7369 12.7718C20.2936 12.6667 19.8382 12.5675 19.3858 12.4693L20.063 9.88637L18.3777 9.48657L17.6866 12.1211C17.3196 12.0416 16.9594 11.963 16.6098 11.8803L16.6117 11.8721L14.2862 11.3197L13.8376 13.0331C13.8376 13.0331 15.0887 13.3059 15.0623 13.3228C15.7453 13.485 15.8687 13.915 15.848 14.2558L15.0613 17.2582C15.1084 17.2696 15.1694 17.2861 15.2366 17.3116C15.1804 17.2984 15.1204 17.2838 15.0585 17.2696L13.9557 21.4755C13.8721 21.6729 13.6603 21.9689 13.1829 21.8565C13.1998 21.8798 11.9573 21.5655 11.9573 21.5655L11.1201 23.4018L13.3145 23.9222C13.7228 24.0196 14.1229 24.1214 14.5167 24.2174L13.8188 26.883L15.5032 27.2828L16.1943 24.6455C16.6544 24.7643 17.1011 24.874 17.5382 24.9773L16.8494 27.6022L18.5357 28.002L19.2336 25.3414C22.109 25.8591 24.2713 25.6503 25.1814 23.1761C25.9148 21.184 25.1449 20.0348 23.632 19.2855C24.7338 19.0438 25.5637 18.3543 25.7851 16.9301ZM21.9323 22.0699C21.4112 24.0621 17.8854 22.9851 16.7423 22.7151L17.6683 19.1836C18.8114 19.455 22.4769 19.9923 21.9323 22.0699ZM22.4539 16.9013C21.9784 18.7134 19.0438 17.7928 18.0919 17.5671L18.9315 14.3641C19.8834 14.5898 22.949 15.0111 22.4539 16.9013Z" fill="white"></path>
<defs><radialGradient id="g8" cx="0" cy="0" r="1" gradientUnits="userSpaceOnUse" gradientTransform="translate(19.0147 19.0167) rotate(90) scale(16.6094 16.6075)"><stop offset="0.380208" stop-color="#35A4EA" stop-opacity="0"></stop><stop offset="1" stop-color="#35A4EA"></stop></radialGradient></defs>
</svg>