<svg width="311" height="39" viewBox="0 0 311 39" fill="none" xmlns="http://www.w3.org/2000/svg">
<path d="M139.132 13.3069H198.347V31.2222H139.132V13.3069Z" fill="url(#paint0_linear_0_128)" fill-opacity="0.2"/>
<path d="M56.4313 13.2789C57.5018 13.2789 58.4267 13.4707 59.2039 13.8473C59.9848 14.2277 60.6292 14.7401 61.1461 15.3844C61.656 16.0321 62.0355 16.7891 62.2805 17.6566C62.5239 18.5266 62.646 19.4618 62.646 20.4631C62.646 22.001 62.3643 23.4539 61.7954 24.8235C61.2265 26.1951 60.4547 27.3848 59.4729 28.3997C58.4919 29.4132 57.3335 30.2123 55.9977 30.8026C54.664 31.3934 53.214 31.6888 51.6571 31.6888C51.4558 31.6888 51.1019 31.683 50.6019 31.6727C50.1019 31.6623 49.5273 31.6108 48.8837 31.5237C48.236 31.4334 47.5512 31.2997 46.8281 31.1207C46.1053 30.945 45.4189 30.6987 44.7725 30.386L50.5528 6.09802L55.73 5.29565L53.6604 13.9146C54.1034 13.7149 54.5498 13.5602 54.9953 13.4476C55.4412 13.3366 55.9198 13.2789 56.4313 13.2789ZM52.0886 27.5816C52.8683 27.5816 53.603 27.3898 54.2932 27.0132C54.9854 26.6361 55.5827 26.1271 56.0831 25.493C56.5835 24.8561 56.9796 24.1387 57.2683 23.3371C57.5571 22.5356 57.7031 21.6994 57.7031 20.8294C57.7031 19.7605 57.5245 18.9268 57.1685 18.3241C56.8125 17.7239 56.1537 17.4219 55.197 17.4219C54.8835 17.4219 54.4796 17.4817 53.9788 17.5886C53.4764 17.702 53.0267 17.9376 52.6237 18.2919L50.42 27.4451C50.5528 27.4686 50.6704 27.4909 50.7706 27.5119C50.8688 27.5346 50.9773 27.5507 51.0854 27.5618C51.1996 27.5746 51.3304 27.5812 51.4884 27.5812C51.6464 27.5812 51.844 27.5816 52.0886 27.5816Z" fill="white"/>
<path d="M68.0153 31.2238H63.0703L67.2463 13.6514H72.2251L68.0153 31.2238ZM70.4216 11.5104C69.7314 11.5104 69.1056 11.3049 68.5503 10.8932C67.9905 10.484 67.7133 9.85406 67.7133 9.00507C67.7133 8.53809 67.8082 8.09998 67.9963 7.68663C68.1873 7.2741 68.4369 6.91892 68.7496 6.61695C69.0619 6.31746 69.4237 6.07819 69.8345 5.89791C70.2479 5.72052 70.6876 5.63184 71.1563 5.63184C71.846 5.63184 72.4685 5.83728 73.0258 6.24898C73.5811 6.66274 73.8604 7.29267 73.8604 8.13711C73.8604 8.60575 73.7659 9.0455 73.5762 9.45803C73.3876 9.87055 73.138 10.2257 72.8254 10.5277C72.5155 10.8276 72.1505 11.0661 71.7404 11.2447C71.3266 11.425 70.8885 11.5104 70.4216 11.5104Z" fill="white"/>
<path d="M76.5581 9.27332L81.7374 8.47095L80.4656 13.6506H86.0124L85.0108 17.7256H79.4974L78.0288 23.8723C77.8935 24.3846 77.8168 24.8631 77.7953 25.3078C77.771 25.7546 77.8275 26.1383 77.9611 26.4613C78.094 26.7851 78.3328 27.0347 78.6793 27.2113C79.0242 27.3907 79.518 27.481 80.1657 27.481C80.6991 27.481 81.2189 27.4303 81.7213 27.3296C82.2209 27.2306 82.7271 27.0929 83.2394 26.9126L83.6082 30.7227C82.9399 30.9677 82.2164 31.1785 81.4367 31.3559C80.6558 31.5358 79.7313 31.6224 78.6628 31.6224C77.1266 31.6224 75.9356 31.3943 75.0871 30.9401C74.2397 30.4826 73.6407 29.8576 73.2822 29.0664C72.9287 28.2781 72.7707 27.3692 72.8149 26.3454C72.8606 25.319 73.0153 24.2402 73.2822 23.1041L76.5581 9.27332Z" fill="white"/>
<path d="M85.7949 24.2067C85.7949 22.6931 86.04 21.2658 86.5296 19.9296C87.0185 18.5922 87.7227 17.4227 88.6364 16.419C89.5469 15.4203 90.6561 14.6291 91.9618 14.0482C93.2613 13.4707 94.7162 13.1794 96.3197 13.1794C97.3234 13.1794 98.2198 13.2743 99.0086 13.4645C99.8006 13.6563 100.517 13.9043 101.165 14.2153L99.4599 18.0931C99.0144 17.9124 98.5519 17.7531 98.0738 17.6088C97.5953 17.4615 97.0111 17.3905 96.3202 17.3905C94.6696 17.3905 93.3648 17.9594 92.3937 19.0934C91.4263 20.2283 90.9391 21.7559 90.9391 23.6721C90.9391 24.8078 91.1842 25.7261 91.6759 26.4286C92.1652 27.1311 93.069 27.4805 94.3813 27.4805C95.0289 27.4805 95.6539 27.4129 96.2525 27.2809C96.8556 27.1472 97.3882 26.9789 97.8572 26.7801L98.2264 30.7552C97.6011 30.9977 96.9113 31.2168 96.1547 31.4086C95.3965 31.5938 94.4939 31.69 93.4473 31.69C92.0657 31.69 90.8962 31.4878 89.9396 31.0897C88.9825 30.6855 88.1917 30.1488 87.5688 29.4689C86.9426 28.7874 86.4929 27.9917 86.2149 27.0783C85.9368 26.1658 85.7949 25.2071 85.7949 24.2067Z" fill="white"/>
<path d="M107.762 31.69C106.582 31.69 105.557 31.5101 104.687 31.1541C103.82 30.7981 103.102 30.2985 102.534 29.6508C101.965 29.0065 101.539 28.2429 101.247 27.363C100.956 26.4835 100.815 25.5095 100.815 24.4423C100.815 23.1036 101.03 21.7654 101.465 20.4309C101.897 19.0934 102.539 17.8918 103.388 16.8237C104.23 15.754 105.269 14.8795 106.493 14.1976C107.715 13.5202 109.121 13.1794 110.7 13.1794C111.859 13.1794 112.879 13.3597 113.76 13.7157C114.638 14.0709 115.36 14.5746 115.932 15.219C116.497 15.8666 116.926 16.6269 117.215 17.5081C117.506 18.386 117.649 19.3624 117.649 20.4304C117.649 21.765 117.437 23.1032 117.017 24.4419C116.595 25.7739 115.97 26.9785 115.145 28.049C114.322 29.117 113.292 29.9912 112.056 30.6702C110.82 31.3492 109.388 31.69 107.762 31.69ZM110.233 17.3909C109.5 17.3909 108.852 17.6038 108.297 18.0242C107.741 18.4495 107.273 18.9841 106.896 19.6289C106.514 20.2766 106.232 20.9828 106.041 21.7505C105.852 22.5199 105.759 23.2472 105.759 23.9382C105.759 25.0532 105.939 25.9216 106.292 26.5466C106.651 27.1683 107.295 27.4809 108.231 27.4809C108.966 27.4809 109.611 27.2697 110.169 26.8448C110.723 26.4228 111.191 25.8878 111.571 25.2417C111.95 24.5974 112.235 23.8891 112.426 23.1201C112.612 22.3532 112.708 21.6218 112.708 20.9321C112.708 19.8199 112.529 18.9495 112.172 18.3253C111.815 17.7036 111.169 17.3909 110.233 17.3909Z" fill="white"/>
<path d="M123.038 31.2238H118.089L122.265 13.6514H127.246L123.038 31.2238ZM125.441 11.5104C124.751 11.5104 124.125 11.3049 123.571 10.8932C123.014 10.484 122.734 9.85406 122.734 9.00507C122.734 8.53809 122.83 8.09998 123.019 7.68663C123.208 7.2741 123.459 6.91892 123.771 6.61695C124.082 6.31746 124.447 6.07819 124.857 5.89791C125.268 5.72052 125.708 5.63184 126.175 5.63184C126.866 5.63184 127.491 5.83728 128.047 6.24898C128.603 6.66274 128.884 7.29267 128.884 8.13711C128.884 8.60575 128.784 9.0455 128.598 9.45803C128.411 9.87055 128.159 10.2257 127.848 10.5277C127.535 10.8276 127.174 11.0661 126.763 11.2447C126.349 11.425 125.91 11.5104 125.441 11.5104Z" fill="white"/>
<path d="M130.81 14.4505C131.186 14.3408 131.605 14.2088 132.061 14.0652C132.518 13.9217 133.029 13.788 133.6 13.6675C134.165 13.5434 134.802 13.4427 135.503 13.3647C136.204 13.2851 137.003 13.2463 137.89 13.2463C140.498 13.2463 142.296 14.0058 143.289 15.5202C144.28 17.0346 144.452 19.1071 143.808 21.7341L141.534 31.2222H136.556L138.761 21.9338C138.895 21.3538 139.001 20.7931 139.079 20.2453C139.158 19.7024 139.153 19.2239 139.061 18.8097C138.973 18.4005 138.766 18.0655 138.445 17.806C138.118 17.5507 137.625 17.4224 136.957 17.4224C136.312 17.4224 135.656 17.4917 134.986 17.6253L131.745 31.2218H126.766L130.81 14.4505Z" fill="white"/>
<path d="M156.171 22.1956C156.171 19.3596 158.469 17.041 161.326 17.041H169.026C171.863 17.041 174.181 19.8771 174.181 22.7132V23.7068C174.181 23.8932 174.015 24.0381 173.829 24.0381H173.208C172.628 24.0381 172.173 23.5826 172.173 23.0237V22.7132C172.173 21.0571 170.827 19.2147 169.192 19.2147H161.16C159.504 19.2147 158.158 20.5395 158.158 22.1956V22.7132C158.158 24.3486 159.504 25.6942 161.16 25.6942H173.146C173.726 25.6942 174.181 26.1496 174.181 26.7292V27.5159C174.181 27.7022 174.015 27.8471 173.829 27.8471H161.326C158.469 27.8471 156.171 25.5493 156.171 22.6925V22.1956Z" fill="url(#paint1_linear_0_128)"/>
<path d="M195.198 18.0761C195.198 17.4964 195.653 17.041 196.233 17.041H196.854C197.04 17.041 197.206 17.2066 197.206 17.3929V22.6925C197.206 25.5493 194.887 27.8471 192.051 27.8471H184.35C181.494 27.8471 179.196 25.5493 179.196 22.6925V18.0761C179.196 17.4964 179.651 17.041 180.21 17.041H180.852C181.038 17.041 181.183 17.2066 181.183 17.3929V22.7132C181.183 24.3486 182.529 25.6942 184.185 25.6942H192.217C193.852 25.6942 195.198 24.3486 195.198 22.7132V18.0761Z" fill="url(#paint2_linear_0_128)"/>
<path d="M201.264 27.8471C201.057 27.8471 200.932 27.6194 201.057 27.4538L208.157 17.8484C208.53 17.3515 209.296 17.041 209.937 17.041C210.558 17.041 211.324 17.3515 211.697 17.8484L218.798 27.4538C218.943 27.6194 218.818 27.8471 218.591 27.8471H217.286C216.852 27.8471 216.438 27.6608 216.169 27.3089L210.062 19.049C210 18.9662 209.855 18.9662 209.793 19.049L203.686 27.3089C203.437 27.6608 203.023 27.8471 202.588 27.8471H201.264Z" fill="url(#paint3_linear_0_128)"/>
<path d="M239.018 18.0761C239.018 17.4964 239.474 17.041 240.053 17.041H240.674C240.861 17.041 241.026 17.2066 241.026 17.3929V26.8327C241.026 27.3917 240.571 27.8471 239.991 27.8471H238.997C238.666 27.8471 238.314 27.7436 238.024 27.5573C235.768 26.0668 227.674 20.7259 225.272 19.1318C225.148 19.0697 225.003 19.1526 225.003 19.2768V26.8327C225.003 27.3917 224.548 27.8471 223.968 27.8471H223.347C223.161 27.8471 223.016 27.7022 223.016 27.5159V18.0761C223.016 17.4964 223.471 17.041 224.03 17.041H224.962C225.335 17.041 225.686 17.1445 225.997 17.3515L238.749 25.7563C238.873 25.8391 239.018 25.7563 239.018 25.6321V18.0761Z" fill="url(#paint4_linear_0_128)"/>
<path d="M245.053 18.0761C245.053 17.4964 245.509 17.041 246.068 17.041H262.712C262.898 17.041 263.064 17.2066 263.064 17.3929V18.1796C263.064 18.7385 262.608 19.2147 262.028 19.2147H255.218C255.135 19.2147 255.052 19.2768 255.052 19.3803V26.8327C255.052 27.3917 254.597 27.8471 254.017 27.8471H253.396C253.21 27.8471 253.044 27.7022 253.044 27.5159V19.3803C253.044 19.2768 252.982 19.2147 252.878 19.2147H245.385C245.198 19.2147 245.053 19.049 245.053 18.8627V18.0761Z" fill="url(#paint5_linear_0_128)"/>
<path d="M282.722 18.0761C282.722 17.4964 283.177 17.041 283.757 17.041H284.378C284.564 17.041 284.73 17.2066 284.73 17.3929V22.6925C284.73 25.5493 282.411 27.8471 279.575 27.8471H271.874C269.017 27.8471 266.72 25.5493 266.72 22.6925V18.0761C266.72 17.4964 267.175 17.041 267.734 17.041H268.376C268.562 17.041 268.707 17.2066 268.707 17.3929V22.7132C268.707 24.3486 270.052 25.6942 271.709 25.6942H279.741C281.376 25.6942 282.722 24.3486 282.722 22.7132V18.0761Z" fill="url(#paint6_linear_0_128)"/>
<path d="M306.046 17.3308C306.294 17.1445 306.584 17.041 306.895 17.041C307.267 17.041 307.93 17.041 308.261 17.041C308.447 17.041 308.592 17.2066 308.592 17.3929V27.5159C308.592 27.7022 308.447 27.8678 308.261 27.8678H307.64C307.06 27.8678 306.605 27.3917 306.605 26.8327V19.4217L301.388 23.4584C300.871 23.8725 300.063 24.0795 299.422 24.0795C298.78 24.0795 297.972 23.8725 297.455 23.4584L292.238 19.4217V26.8327C292.238 27.3917 291.783 27.8678 291.203 27.8678H290.582C290.396 27.8678 290.251 27.7022 290.251 27.5159V17.3929C290.251 17.2066 290.396 17.041 290.582 17.041H291.721C292.176 17.041 292.611 17.2066 292.983 17.4757C293.687 18.014 295.447 19.2561 298.945 21.9679C299.339 22.2578 299.691 22.2578 300.063 21.9679C301.657 20.7259 304.535 18.5108 306.046 17.3308Z" fill="url(#paint7_linear_0_128)"/>
<path d="M35.1251 23.0347C32.9068 31.9326 23.8947 37.3477 14.9957 35.1288C6.10044 32.9104 0.685292 23.8978 2.90471 15.0005C5.12204 6.10154 14.1341 0.685882 23.0305 2.90426C31.9289 5.12263 37.3435 14.1363 35.1251 23.0347Z" fill="url(#paint8_radial_0_128)" fill-opacity="0.3"/>
<path fill-rule="evenodd" clip-rule="evenodd" d="M4.30614 15.3497L4.30604 15.35C2.2797 23.4734 7.22389 31.7021 15.3452 33.7274C23.4702 35.7534 31.6984 30.8092 33.7238 22.6853C35.7492 14.5607 30.8053 6.33101 22.6811 4.30564L22.681 4.30562C14.5589 2.28029 6.33062 7.2247 4.30614 15.3497ZM23.0265 2.9204L23.0265 2.92027L23.0265 2.9204ZM23.0305 2.90426C14.1341 0.685882 5.12204 6.10154 2.90471 15.0005C0.685292 23.8978 6.10044 32.9104 14.9957 35.1288C23.8947 37.3477 32.9068 31.9326 35.1251 23.0347C37.3435 14.1363 31.9289 5.12263 23.0305 2.90426Z" fill="#35A4EA"/>
<path d="M25.7851 16.9301C26.0911 14.9846 24.534 13.9387 22.4049 13.241L23.0955 10.6056L21.4093 10.2058L20.7369 12.7718C20.2936 12.6667 19.8382 12.5675 19.3858 12.4693L20.063 9.88637L18.3777 9.48657L17.6866 12.1211C17.3196 12.0416 16.9594 11.963 16.6098 11.8803L16.6117 11.8721L14.2862 11.3197L13.8376 13.0331C13.8376 13.0331 15.0887 13.3059 15.0623 13.3228C15.7453 13.485 15.8687 13.915 15.848 14.2558L15.0613 17.2582C15.1084 17.2696 15.1694 17.2861 15.2366 17.3116C15.1804 17.2984 15.1204 17.2838 15.0585 17.2696L13.9557 21.4755C13.8721 21.6729 13.6603 21.9689 13.1829 21.8565C13.1998 21.8798 11.9573 21.5655 11.9573 21.5655L11.1201 23.4018L13.3145 23.9222C13.7228 24.0196 14.1229 24.1214 14.5167 24.2174L13.8188 26.883L15.5032 27.2828L16.1943 24.6455C16.6544 24.7643 17.1011 24.874 17.5382 24.9773L16.8494 27.6022L18.5357 28.002L19.2336 25.3414C22.109 25.8591 24.2713 25.6503 25.1814 23.1761C25.9148 21.184 25.1449 20.0348 23.632 19.2855C24.7338 19.0438 25.5637 18.3543 25.7851 16.9301ZM21.9323 22.0699C21.4112 24.0621 17.8854 22.9851 16.7423 22.7151L17.6683 19.1836C18.8114 19.455 22.4769 19.9923 21.9323 22.0699ZM22.4539 16.9013C21.9784 18.7134 19.0438 17.7928 18.0919 17.5671L18.9315 14.3641C19.8834 14.5898 22.949 15.0111 22.4539 16.9013Z" fill="white"/>
<defs>
<linearGradient id="paint0_linear_0_128" x1="139.132" y1="22.4336" x2="198.347" y2="22.4336" gradientUnits="userSpaceOnUse">
<stop stop-color="#35A4EA"/>
<stop offset="1" stop-color="#35A4EA" stop-opacity="0"/>
</linearGradient>
<linearGradient id="paint1_linear_0_128" x1="151.69" y1="22.3549" x2="314.412" y2="22.3549" gradientUnits="userSpaceOnUse">
<stop offset="0.0001" stop-color="#99CDEE"/>
<stop offset="1" stop-color="white"/>
</linearGradient>
<linearGradient id="paint2_linear_0_128" x1="151.69" y1="22.3549" x2="314.412" y2="22.3549" gradientUnits="userSpaceOnUse">
<stop offset="0.0001" stop-color="#99CDEE"/>
<stop offset="1" stop-color="white"/>
</linearGradient>
<linearGradient id="paint3_linear_0_128" x1="151.69" y1="22.3549" x2="314.412" y2="22.3549" gradientUnits="userSpaceOnUse">
<stop offset="0.0001" stop-color="#99CDEE"/>
<stop offset="1" stop-color="white"/>
</linearGradient>
<linearGradient id="paint4_linear_0_128" x1="151.69" y1="22.3549" x2="314.412" y2="22.3549" gradientUnits="userSpaceOnUse">
<stop offset="0.0001" stop-color="#99CDEE"/>
<stop offset="1" stop-color="white"/>
</linearGradient>
<linearGradient id="paint5_linear_0_128" x1="151.69" y1="22.3549" x2="314.412" y2="22.3549" gradientUnits="userSpaceOnUse">
<stop offset="0.0001" stop-color="#99CDEE"/>
<stop offset="1" stop-color="white"/>
</linearGradient>
<linearGradient id="paint6_linear_0_128" x1="151.69" y1="22.3549" x2="314.412" y2="22.3549" gradientUnits="userSpaceOnUse">
<stop offset="0.0001" stop-color="#99CDEE"/>
<stop offset="1" stop-color="white"/>
</linearGradient>
<linearGradient id="paint7_linear_0_128" x1="151.69" y1="22.3549" x2="314.412" y2="22.3549" gradientUnits="userSpaceOnUse">
<stop offset="0.0001" stop-color="#99CDEE"/>
<stop offset="1" stop-color="white"/>
</linearGradient>
<radialGradient id="paint8_radial_0_128" cx="0" cy="0" r="1" gradientUnits="userSpaceOnUse" gradientTransform="translate(19.0147 19.0167) rotate(90) scale(16.6094 16.6075)">
<stop offset="0.380208" stop-color="#35A4EA" stop-opacity="0"/>
<stop offset="1" stop-color="#35A4EA"/>
</radialGradient>
</defs>
</svg>
